# xmcd
#
# Track frame offsets: 
#        150
#        9204
#        20124
#        27876
#        38146
#        50610
#        59955
#        72091
#        81687
#        93486
#        103700
#        113819
#        127948
#        137582
#        147827
#        162559
#        180015
#        189593
#        200036
#        212363
#        222192
#        234207
#        254526
#        265392
#        275698
#        289861
#
# Disc length: 4010 seconds
#
# Revision: 0
# Processed by: cddbd v1.5.2PL0 Copyright (c) Steve Scherf et al.
# Submitted via: ExactAudioCopy v1.0b3
#
DISCID=870fa81a
DTITLE=Various Artist - Reverb Brazil: Uma Coleção De Bandas De Surfe (DD-001
DTITLE=)
DYEAR=2003
DGENRE=Surf
TTITLE0=Retrofoguetes - As Concubinas Mecãnicas Do Dr. Karzov
TTITLE1=Go! - Destrua Meu Chip Quando Eu Morrer
TTITLE2=Orestes Prezza - Octopunch
TTITLE3=Gasolines - Pigrizia
TTITLE4=Kozmic Gorillas - Kozmic Gorillas
TTITLE5=Cochabambas - Triste Fim De Josefel Zanatas
TTITLE6=Maremotos - Surfista Anõmo
TTITLE7=Nettunos - 120
TTITLE8=Estrume 'N' Tal - ET De Varginha
TTITLE9=Ambervisions - Vegas
TTITLE10=Thesurfmotherfuckers - Sadomasofucker
TTITLE11=Huntington Bitches - Ultimate
TTITLE12=Retrofoguetes - O Avanço Da Robótica
TTITLE13=Ambervisions - Visite Nossa Cozinha
TTITLE14=Limbonautas - Kursk, O Submarino Atõmica
TTITLE15=Estrume 'N' Tall - Tubarão
TTITLE16=Cochabambas - Fuca Bala
TTITLE17=Orestes Prezza - L'@
TTITLE18=Maremotos - Maremoto
TTITLE19=Limbonautas - Salve Silvio
TTITLE20=Netunos - Aloha, Pancho!
TTITLE21=Thesurfmotherfuckers - El Duelo De Chinuauas
TTITLE22=Kozmic Goillas - Sunbathing
TTITLE23=Go! - Amperagem Máxima
TTITLE24=Huntington Bitches - Fetiche Bizarro
TTITLE25=Gasolines - Ojos Negros
EXTD=
EXTT0=
EXTT1=
EXTT2=
EXTT3=
EXTT4=
EXTT5=
EXTT6=
EXTT7=
EXTT8=
EXTT9=
EXTT10=
EXTT11=
EXTT12=
EXTT13=
EXTT14=
EXTT15=
EXTT16=
EXTT17=
EXTT18=
EXTT19=
EXTT20=
EXTT21=
EXTT22=
EXTT23=
EXTT24=
EXTT25=
PLAYORDER=
